<?xml version="1.0" encoding="utf-8"?>
<!-- Generator: Adobe Illustrator 27.1.1, SVG Export Plug-In . SVG Version: 6.00 Build 0)  -->
<svg version="1.1" id="Ebene_1" xmlns="http://www.w3.org/2000/svg" xmlns:xlink="http://www.w3.org/1999/xlink" x="0px" y="0px"
	 viewBox="0 0 69 69" style="enable-background:new 0 0 69 69;" xml:space="preserve">
<style type="text/css">
	.st0{fill:#854D0E;}
	.st1{fill:#A16207;}
	.st2{fill:#EAB308;}
</style>
<rect x="12.5" y="0" class="st0" width="44" height="69"/>
<rect y="12.5" class="st0" width="69" height="44"/>
<rect x="15.5" y="0" class="st1" width="38" height="69"/>
<rect y="15.5" class="st1" width="69" height="38"/>
<path class="st2" d="M35.5,68h-2v-4h2V68z M35.5,60h-2v-4h2V60z M35.5,52h-2v-4h2V52z M35.5,44h-2v-4h2V44z M35.5,36h-2v-4h2V36z
	 M35.5,28h-2v-4h2V28z M35.5,20h-2v-4h2V20z M35.5,12h-2V8h2V12z M35.5,4h-2V0h2V4z"/>
<path class="st2" d="M69,35.7h-4v-2h4L69,35.7L69,35.7z M61,35.7h-4v-2h4V35.7z M53,35.7h-4v-2h4V35.7z M45,35.7h-4v-2h4V35.7z
	 M37,35.6h-4v-2h4V35.6z M29,35.6h-4v-2h4V35.6z M21,35.6h-4v-2h4V35.6z M13,35.5H9v-2h4V35.5z M5,35.5l-4,0v-2l4,0V35.5z"/>
<rect x="15.5" y="15.5" class="st1" width="38" height="38"/>
</svg>
