<?xml version="1.0" encoding="utf-8"?>
<!-- Generator: Adobe Illustrator 27.1.1, SVG Export Plug-In . SVG Version: 6.00 Build 0)  -->
<svg version="1.1" id="Ebene_3" xmlns="http://www.w3.org/2000/svg" xmlns:xlink="http://www.w3.org/1999/xlink" x="0px" y="0px"
	 viewBox="0 0 69 69" style="enable-background:new 0 0 69 69;" xml:space="preserve">
<style type="text/css">
	.st0{fill:#854D0E;}
	.st1{fill:#A16207;}
	.st2{fill:#EAB308;}
</style>
<rect x="12" y="13" class="st0" width="44" height="56"/>
<rect x="12" y="12.5" class="st0" width="60.5" height="44"/>
<rect x="15" y="15.5" class="st1" width="56.4" height="38"/>
<rect x="15" y="17" class="st1" width="38" height="52"/>
<path class="st2" d="M75.4,35.5h-4v-2h4V35.5z M67.4,35.5h-4v-2h4V35.5z M59.4,35.5h-4v-2h4V35.5z M51.4,35.5h-4v-2h4V35.5z
	 M43.4,35.5h-4v-2h4V35.5z"/>
<path class="st2" d="M35,69h-2v-3.5h2V69z M35,61.5h-2v-4h2V61.5z M35,53.5h-2v-4h2V53.5z M35,45.5h-2v-4h2V45.5z M35,37.5h-2v-4h2
	V37.5z"/>
<rect x="33" y="33.5" class="st2" width="4" height="2"/>
</svg>
