<?xml version="1.0" encoding="UTF-8"?><svg id="Ebene_3" xmlns="http://www.w3.org/2000/svg" viewBox="0 0 56.98 56.5"><defs><style>.cls-1{fill:#efda1f;}.cls-2{fill:#717171;}.cls-3{fill:#555454;}</style></defs><rect class="cls-3" y=".5" width="44" height="56"/><rect class="cls-3" width="56.98" height="44"/><rect class="cls-2" x="3" y="3" width="53.98" height="38"/><rect class="cls-2" x="3" y="4.5" width="38" height="52"/><path class="cls-1" d="M55.42,23h-4v-2h4v2Zm-8,0h-4v-2h4v2Zm-8,0h-4v-2h4v2Zm-8,0h-4v-2h4v2Z"/><path class="cls-1" d="M23,56.5h-2v-3.48h2v3.48Zm0-7.48h-2v-4h2v4Zm0-8h-2v-4h2v4Zm0-8h-2v-4h2v4Zm0-8h-2v-4h2v4Z"/><rect class="cls-1" x="21" y="21" width="4" height="2"/></svg>