<?xml version="1.0" encoding="utf-8"?>
<!-- Generator: Adobe Illustrator 27.1.1, SVG Export Plug-In . SVG Version: 6.00 Build 0)  -->
<svg version="1.1" id="Ebene_4" xmlns="http://www.w3.org/2000/svg" xmlns:xlink="http://www.w3.org/1999/xlink" x="0px" y="0px"
	 viewBox="0 0 69 69" style="enable-background:new 0 0 69 69;" xml:space="preserve">
<style type="text/css">
	.st0{fill:#854D0E;}
	.st1{fill:#A16207;}
	.st2{fill:#EAB308;}
</style>
<rect x="12.5" y="0" class="st0" width="44" height="69"/>
<rect x="15.5" y="0" class="st1" width="38" height="69"/>
<path class="st2" d="M35.5,68h-2v-4h2V68z M35.5,60h-2v-4h2V60z M35.5,52h-2v-4h2V52z M35.5,44h-2v-4h2V44z M35.5,36h-2v-4h2V36z
	 M35.5,28h-2v-4h2V28z M35.5,20h-2v-4h2V20z M35.5,12h-2V8h2V12z M35.5,4h-2V0h2V4z"/>
</svg>
