<?xml version="1.0" encoding="utf-8"?>
<!-- Generator: Adobe Illustrator 27.1.1, SVG Export Plug-In . SVG Version: 6.00 Build 0)  -->
<svg version="1.1" id="Ebene_2_00000033365260737004130140000009254730000885740958_"
	 xmlns="http://www.w3.org/2000/svg" xmlns:xlink="http://www.w3.org/1999/xlink" x="0px" y="0px" viewBox="0 0 69 69"
	 style="enable-background:new 0 0 69 69;" xml:space="preserve">
<style type="text/css">
	.st0{fill:#854D0E;}
	.st1{fill:#A16207;}
	.st2{fill:#EAB308;}
</style>
<rect x="12.5" y="15" class="st0" width="44" height="54"/>
<rect y="12.5" class="st0" width="69" height="44"/>
<rect x="15.5" y="16" class="st1" width="38" height="53"/>
<rect y="15.5" class="st1" width="69" height="38"/>
<g>
	<path class="st2" d="M35.5,69h-2v-3h2V69z M35.5,62h-2v-4h2V62z M35.5,54h-2v-4h2V54z M35.5,46h-2v-4h2V46z"/>
	<path class="st2" d="M1,35.5v-2h4v2H1z M9,35.5v-2h4v2H9z M17,35.5v-2h4v2H17z M25,35.5v-2h4v2H25z M33,35.5v-2h4v2H33z M41,35.5
		v-2h4v2H41z M49,35.5v-2h4v2H49z M57,35.5v-2h4v2H57z M65,35.5v-2h4v2H65z"/>
</g>
<rect x="15.5" y="15.5" class="st1" width="38" height="40"/>
</svg>
