<?xml version="1.0" encoding="UTF-8"?>
<svg id="Ebene_2" data-name="Ebene 2" xmlns="http://www.w3.org/2000/svg" viewBox="0 0 69 69">
  <defs>
    <style>
      .cls-1 {
        fill: #efda1f;
      }

      .cls-2 {
        fill: #717171;
      }

      .cls-3 {
        fill: #555454;
      }
    </style>
  </defs>
  <rect class="cls-3" x="12.5" y="15" width="44" height="54"/>
  <rect class="cls-3" y="12.5" width="69" height="44"/>
  <rect class="cls-2" x="15.5" y="16" width="38" height="53"/>
  <rect class="cls-2" y="15.5" width="69" height="38"/>
  <g>
    <path class="cls-1" d="M35.5,69h-2v-3h2v3Zm0-7h-2v-4h2v4Zm0-8h-2v-4h2v4Zm0-8h-2v-4h2v4Z"/>
    <path class="cls-1" d="M1,35.5v-2H5v2H1Zm8,0v-2h4v2h-4Zm8,0v-2h4v2h-4Zm8,0v-2h4v2h-4Zm8,0v-2h4v2h-4Zm8,0v-2h4v2h-4Zm8,0v-2h4v2h-4Zm8,0v-2h4v2h-4Zm8,0v-2h4v2h-4Z"/>
  </g>
  <rect class="cls-2" x="15.5" y="15.5" width="38" height="40"/>
</svg>