<?xml version="1.0" encoding="UTF-8"?><svg id="tiles" xmlns="http://www.w3.org/2000/svg" xmlns:xlink="http://www.w3.org/1999/xlink" viewBox="0 0 100 100"><defs><style>.cls-1,.cls-2{fill:none;}.cls-2{stroke:#535353;stroke-miterlimit:10;stroke-width:3px;}.cls-3{clip-path:url(#clippath);}.cls-4{fill:#707070;}.cls-5{fill:#efda1f;stroke:#efda1f;stroke-linejoin:round;}</style><clipPath id="clippath"><rect id="mask" class="cls-1" width="100" height="100"/></clipPath></defs><g id="t-cross"><g class="cls-3"><polygon id="street" class="cls-4" points="79.71 20.29 100 20.29 100 79.71 79.71 79.71 79.71 100 20.29 100 20.29 79.71 0 79.71 0 20.29 20.29 20.29 79.71 20.29"/><polygon id="border" class="cls-2" points="79.71 20.29 110 20.29 110 79.71 79.71 79.71 79.71 110 20.29 110 20.29 79.71 -10 79.71 -10 20.29 20.29 20.29 79.71 20.29"/><rect id="line" class="cls-5" x="-1.55" y="49.28" width="5.8" height="1.45"/><rect id="line-2" class="cls-5" x="95.75" y="49.28" width="5.8" height="1.45"/><rect id="line-3" class="cls-5" x="11.49" y="49.28" width="5.8" height="1.45"/><rect id="line-4" class="cls-5" x="81.71" y="49.28" width="5.8" height="1.45"/><rect id="line-5" class="cls-5" x="47.1" y="98.93" width="5.8" height="1.45" transform="translate(-49.65 149.65) rotate(-90)"/><rect id="line-6" class="cls-5" x="47.1" y="83.88" width="5.8" height="1.45" transform="translate(-34.61 134.61) rotate(-90)"/></g></g></svg>