<?xml version="1.0" encoding="UTF-8"?>
<svg id="Ebene_1" data-name="Ebene 1" xmlns="http://www.w3.org/2000/svg" viewBox="0 0 69 69">
  <defs>
    <style>
      .cls-1 {
        fill: #efda1f;
      }

      .cls-2 {
        fill: #717171;
      }

      .cls-3 {
        fill: #555454;
      }
    </style>
  </defs>
  <rect class="cls-3" x="12.5" width="44" height="69"/>
  <rect class="cls-3" y="12.5" width="69" height="44"/>
  <rect class="cls-2" x="15.5" width="38" height="69"/>
  <rect class="cls-2" y="15.5" width="69" height="38"/>
  <path class="cls-1" d="M35.5,68h-2v-4h2v4Zm0-8h-2v-4h2v4Zm0-8h-2v-4h2v4Zm0-8h-2v-4h2v4Zm0-8h-2v-4h2v4Zm0-8h-2v-4h2v4Zm0-8h-2v-4h2v4Zm0-8h-2v-4h2v4Zm0-8h-2V0h2V4Z"/>
  <path class="cls-1" d="M69,35.75h-4s0-2.01,0-2.01h3.99v2.01Zm-8-.03h-4s0-2.01,0-2.01h4s0,2.01,0,2.01Zm-8-.03h-4s0-2.01,0-2.01h4s0,2.01,0,2.01Zm-8-.03h-4s0-2.01,0-2.01h4s0,2.01,0,2.01Zm-8-.03h-4v-2.01h4v2.01Zm-8-.03h-4s0-2.01,0-2.01h4s0,2.01,0,2.01Zm-8-.03h-4s0-2.01,0-2.01h4s0,2.01,0,2.01Zm-8-.03h-4v-2.01h4v2.01Zm-8-.03l-4-.02v-2l4,.02v2Z"/>
  <rect class="cls-2" x="15.5" y="15.5" width="38" height="38"/>
</svg>