<?xml version="1.0" encoding="UTF-8"?>
<svg id="Ebene_4" data-name="Ebene 4" xmlns="http://www.w3.org/2000/svg" viewBox="0 0 69 69">
  <defs>
    <style>
      .cls-1 {
        fill: #efda1f;
      }

      .cls-2 {
        fill: #717171;
      }

      .cls-3 {
        fill: #555454;
      }
    </style>
  </defs>
  <rect class="cls-3" x="12.5" y="0" width="44" height="69"/>
  <rect class="cls-2" x="15.5" y="0" width="38" height="69"/>
  <path class="cls-1" d="M35.5,68h-2v-4h2v4Zm0-8h-2v-4h2v4Zm0-8h-2v-4h2v4Zm0-8h-2v-4h2v4Zm0-8h-2v-4h2v4Zm0-8h-2v-4h2v4Zm0-8h-2v-4h2v4Zm0-8h-2v-4h2v4Zm0-8h-2V0h2v4Z"/>
</svg>